<svg width="33" height="33" viewBox="0 0 33 33" fill="none" xmlns="http://www.w3.org/2000/svg">
<path d="M16.1641 28.9468C22.7915 28.9468 28.1641 23.5742 28.1641 16.9468C28.1641 10.3194 22.7915 4.94678 16.1641 4.94678C9.53665 4.94678 4.16406 10.3194 4.16406 16.9468C4.16406 23.5742 9.53665 28.9468 16.1641 28.9468Z" stroke="black" stroke-width="2" stroke-linecap="round" stroke-linejoin="round"/>
<path d="M16.1641 21.4468C18.6493 21.4468 20.6641 19.4321 20.6641 16.9468C20.6641 14.4615 18.6493 12.4468 16.1641 12.4468C13.6788 12.4468 11.6641 14.4615 11.6641 16.9468C11.6641 19.4321 13.6788 21.4468 16.1641 21.4468Z" stroke="black" stroke-width="2" stroke-linecap="round" stroke-linejoin="round"/>
<path d="M16.1641 12.4468H27.2891" stroke="black" stroke-width="2" stroke-linecap="round" stroke-linejoin="round"/>
<path d="M12.2642 19.1968L6.70166 9.55933" stroke="black" stroke-width="2" stroke-linecap="round" stroke-linejoin="round"/>
<path d="M20.064 19.1968L14.5015 28.8343" stroke="black" stroke-width="2" stroke-linecap="round" stroke-linejoin="round"/>
</svg>
