<svg width="84" height="133" viewBox="0 0 84 133" fill="none" xmlns="http://www.w3.org/2000/svg">
<path d="M65.7063 45.3397C69.1322 40.2009 70.8452 35.4047 70.8452 30.951C70.8452 26.4974 69.589 22.9573 67.0767 20.3308C64.5644 17.7043 61.2527 16.3911 57.1416 16.3911C53.0306 16.3911 49.7189 17.4188 47.2066 19.4743C44.6943 21.4157 43.4381 24.5561 43.4381 28.8955C43.4381 33.1208 46.4072 40.7719 52.3454 51.8489C58.2836 62.9259 62.0521 70.0632 63.6508 73.2606C67.9903 81.9395 70.16 90.3329 70.16 98.4409C70.16 108.604 66.4486 116.883 59.0259 123.278C51.7173 129.559 43.0384 132.7 32.9892 132.7C23.0541 132.7 15.2317 129.616 9.52192 123.45C3.81213 117.169 0.957226 109.86 0.957226 101.524C0.957226 86.1077 10.4926 73.3748 29.5633 63.3256C21.798 48.0233 17.9153 37.346 17.9153 31.2936C17.9153 22.8431 21.2841 15.7059 28.0217 9.88189C34.8734 3.9437 43.2097 0.974604 53.0306 0.974604C62.9656 0.974604 70.5597 3.48691 75.8127 8.51153C81.0657 13.5362 83.6922 19.9311 83.6922 27.6965C83.6922 32.8353 81.9793 38.7164 78.5534 45.3397H65.7063ZM20.8273 112.144C23.9106 115.456 27.622 117.112 31.9614 117.112C36.4151 117.112 39.841 115.856 42.2391 113.343C44.7514 110.717 46.0075 106.891 46.0075 101.867C46.0075 97.2989 44.2375 91.7033 40.6974 85.0799C40.2406 84.1664 39.3842 82.5105 38.128 80.1124C36.8719 77.6001 35.9583 75.8301 35.3873 74.8023C22.5974 81.4257 16.2024 89.762 16.2024 99.8112C16.2024 104.95 17.744 109.061 20.8273 112.144Z" fill="white"/>
</svg>
