<svg width="856" height="193" viewBox="0 0 856 193" fill="none" xmlns="http://www.w3.org/2000/svg">
<path d="M94.5 65C99.5 57.5 102 50.5 102 44C102 37.5 100.167 32.3333 96.5 28.5C92.8333 24.6667 88 22.75 82 22.75C76 22.75 71.1667 24.25 67.5 27.25C63.8333 30.0833 62 34.6667 62 41C62 47.1667 66.3333 58.3333 75 74.5C83.6667 90.6667 89.1667 101.083 91.5 105.75C97.8333 118.417 101 130.667 101 142.5C101 157.333 95.5833 169.417 84.75 178.75C74.0833 187.917 61.4167 192.5 46.75 192.5C32.25 192.5 20.8333 188 12.5 179C4.16667 169.833 7.07805e-07 159.167 7.07805e-07 147C7.07805e-07 124.5 13.9167 105.917 41.75 91.25C30.4167 68.9167 24.75 53.3333 24.75 44.5C24.75 32.1667 29.6667 21.75 39.5 13.25C49.5 4.58333 61.6667 0.249997 76 0.249997C90.5 0.249997 101.583 3.91666 109.25 11.25C116.917 18.5833 120.75 27.9167 120.75 39.25C120.75 46.75 118.25 55.3333 113.25 65H94.5ZM29 162.5C33.5 167.333 38.9167 169.75 45.25 169.75C51.75 169.75 56.75 167.917 60.25 164.25C63.9167 160.417 65.75 154.833 65.75 147.5C65.75 140.833 63.1667 132.667 58 123C57.3333 121.667 56.0833 119.25 54.25 115.75C52.4167 112.083 51.0833 109.5 50.25 108C31.5833 117.667 22.25 129.833 22.25 144.5C22.25 152 24.5 158 29 162.5ZM231.82 73.25C224.987 127.25 221.57 156 221.57 159.5C221.57 166.167 223.987 169.5 228.82 169.5C233.154 169.5 237.82 166.583 242.82 160.75C247.987 154.75 252.07 145.833 255.07 134C260.57 140 263.904 144.667 265.07 148C261.237 164.167 255.154 175.583 246.82 182.25C238.487 188.917 229.904 192.25 221.07 192.25C206.57 192.25 196.82 186.667 191.82 175.5C183.154 186.667 171.57 192.25 157.07 192.25C145.07 192.25 135.82 189.25 129.32 183.25C122.82 177.25 119.57 169.417 119.57 159.75C119.57 157.417 119.987 153.333 120.82 147.5C124.654 116.5 127.57 91.8333 129.57 73.5C134.737 71.6667 139.487 70.75 143.82 70.75C148.154 70.75 151.404 70.9167 153.57 71.25C155.737 71.5833 157.82 72.8333 159.82 75C161.82 77.1667 162.82 80.25 162.82 84.25L154.57 148C154.237 150 154.07 151.833 154.07 153.5C154.07 163.333 158.57 168.25 167.57 168.25C175.904 168.25 182.82 164.167 188.32 156C188.32 154.167 188.487 151.25 188.82 147.25L197.07 80.75C198.237 77.9167 200.737 75.5833 204.57 73.75C208.404 71.75 213.154 70.75 218.82 70.75C224.654 70.75 228.987 71.5833 231.82 73.25ZM320.279 70.5C332.279 70.5 342.613 75.4167 351.279 85.25C359.946 95.0833 364.279 106.583 364.279 119.75C364.279 121.583 364.196 123.5 364.029 125.5C362.196 147.333 354.863 164 342.029 175.5C329.196 186.833 312.446 192.5 291.779 192.5C283.446 192.167 276.196 190.667 270.029 188C263.863 185.333 259.279 182 256.279 178C250.613 170.667 247.779 164.167 247.779 158.5C247.779 152.667 248.613 143.333 250.279 130.5C253.779 104.167 258.779 61.5833 265.279 2.74999C268.779 1.41666 273.446 0.749991 279.279 0.749991C292.613 0.749991 299.279 4.58332 299.279 12.25L290.779 78.75C298.613 73.25 308.446 70.5 320.279 70.5ZM281.529 156.75C281.529 160.583 282.946 163.833 285.779 166.5C288.779 169 292.863 170.25 298.029 170.25C306.529 170.25 313.529 166.333 319.029 158.5C325.696 149 329.029 136.667 329.029 121.5C329.029 114.167 327.363 107.667 324.029 102C320.696 96.3333 315.529 93.5 308.529 93.5C299.029 93.5 291.779 99.1667 286.779 110.5L284.779 125.5C282.613 142.333 281.529 152.75 281.529 156.75ZM446.209 163L452.209 107.25C452.209 102.75 451.042 99 448.709 96C446.376 93 442.459 91.5 436.959 91.5C431.626 91.5 427.042 93.9167 423.209 98.75C419.542 103.417 417.209 109.333 416.209 116.5C410.209 162.167 407.042 187 406.709 191H372.959L386.709 73.25C393.709 71.4167 399.042 70.5 402.709 70.5C413.876 70.5 419.709 74.5833 420.209 82.75C428.376 74.75 438.126 70.75 449.459 70.75C460.959 70.75 469.959 73.5833 476.459 79.25C482.959 84.9167 486.209 92.0833 486.209 100.75C486.209 103.083 485.709 107.5 484.709 114C480.876 139.333 478.959 154.083 478.959 158.25C478.959 165.917 481.542 169.75 486.709 169.75C498.042 169.75 506.626 157.917 512.459 134.25C518.126 140.25 521.542 145 522.709 148.5C513.876 177.833 498.542 192.5 476.709 192.5C466.376 192.5 458.709 189.333 453.709 183C448.709 176.667 446.209 170 446.209 163ZM551.098 135C561.431 132.833 569.098 128.667 574.098 122.5C579.264 116.333 581.848 110.417 581.848 104.75C581.848 98.9167 580.264 95 577.098 93C574.098 90.8333 570.764 89.75 567.098 89.75C559.264 89.75 552.348 94.1667 546.348 103C540.514 111.667 537.598 122.083 537.598 134.25C537.598 146.25 540.431 155.25 546.098 161.25C551.931 167.083 559.098 170 567.598 170C580.098 170 592.098 165.667 603.598 157C615.098 148.333 624.431 137 631.598 123C635.264 126.5 638.598 130.833 641.598 136C636.098 148.5 626.348 160.75 612.348 172.75C605.348 178.583 597.014 183.333 587.348 187C577.848 190.667 568.014 192.5 557.848 192.5C541.181 192.5 528.014 187.417 518.348 177.25C508.014 166.25 502.848 152.167 502.848 135C502.848 117.833 509.264 102.833 522.098 90C535.098 77.1667 550.598 70.75 568.598 70.75C581.431 70.75 591.848 73.5833 599.848 79.25C607.848 84.75 611.931 92.25 612.098 101.75C612.098 114.583 606.931 125 596.598 133C586.431 141 572.431 146.583 554.598 149.75L551.098 135ZM732.303 192.25C716.969 192.25 706.803 186.917 701.803 176.25C693.136 187.083 681.969 192.5 668.303 192.5C654.803 192.5 643.386 187.917 634.053 178.75C624.886 169.583 620.303 157.5 620.303 142.5C620.303 120.667 626.719 103.25 639.553 90.25C652.386 77.25 668.636 70.75 688.303 70.75C688.803 70.75 689.303 70.75 689.803 70.75C698.136 70.75 705.803 72.1667 712.803 75C717.303 72.1667 722.719 70.75 729.053 70.75C735.553 70.75 740.219 71.5833 743.053 73.25C741.553 85.5833 739.969 97.75 738.303 109.75C736.636 121.583 735.469 130 734.803 135C733.303 146.333 732.553 154.5 732.553 159.5C732.553 166.167 735.219 169.5 740.553 169.5C744.719 169.5 749.136 166.75 753.803 161.25C758.469 155.583 762.553 146.75 766.053 134.75C770.886 139.083 774.219 143.917 776.053 149.25C771.219 165.083 764.719 176.25 756.553 182.75C748.386 189.083 740.303 192.25 732.303 192.25ZM692.053 90.25C681.386 90.25 672.886 94.3333 666.553 102.5C660.386 110.5 656.719 122.5 655.553 138.5C655.386 140 655.303 141.417 655.303 142.75C655.303 150.917 657.219 157.417 661.053 162.25C665.053 167.083 670.136 169.5 676.303 169.5C686.803 169.5 694.719 162.083 700.053 147.25L706.053 93.25C701.219 91.25 696.553 90.25 692.053 90.25ZM831.766 103.5C831.766 96.1667 828.349 92.5 821.516 92.5C814.849 92.5 809.516 96.8333 805.516 105.5C823.516 119.667 832.516 135.583 832.516 153.25C832.516 166.083 828.932 175.833 821.766 182.5C814.599 189.167 805.599 192.5 794.766 192.5C783.932 192.5 776.016 189.167 771.016 182.5C766.016 175.667 763.516 167.083 763.516 156.75C763.516 153.583 763.599 151.25 763.766 149.75L772.516 73.5C778.516 71.6667 784.599 70.75 790.766 70.75C800.932 70.75 806.016 74.5 806.016 82V82.5C812.682 74.6667 821.182 70.75 831.516 70.75C839.016 70.75 844.849 72.5 849.016 76C853.182 79.3333 855.266 83.8333 855.266 89.5C855.266 95.1667 853.099 99.8333 848.766 103.5C844.599 107 839.099 108.75 832.266 108.75C831.932 108.75 831.599 108.75 831.266 108.75C831.599 106.917 831.766 105.167 831.766 103.5ZM816.266 152C816.266 142.333 811.266 132.667 801.266 123C798.266 147 796.766 159.083 796.766 159.25C796.766 166.25 799.599 169.75 805.266 169.75C812.599 169.75 816.266 163.833 816.266 152Z" fill="#6E72EC"/>
</svg>
